<svg width="32" height="32" viewBox="0 0 32 32" fill="none" xmlns="http://www.w3.org/2000/svg">
<path d="M29.3333 7.33337H12C10.5333 7.33337 9.33333 8.44107 9.33333 9.79491V20.8718C9.33333 21.5247 9.61429 22.1508 10.1144 22.6124C10.6145 23.074 11.2928 23.3334 12 23.3334H29.3333C30.8133 23.3334 32 22.238 32 20.8718V9.79491C32 9.14207 31.719 8.51597 31.219 8.05434C30.7189 7.59271 30.0406 7.33337 29.3333 7.33337ZM29.3333 11.8503L20.6667 15.9488L12 11.8503V9.79491L20.6667 13.8688L29.3333 9.79491V11.8503ZM6.66667 20.8718C6.66667 21.0811 6.70667 21.278 6.73333 21.4872H1.33333C0.597333 21.4872 0 20.9334 0 20.2565C0 19.5795 0.597333 19.0257 1.33333 19.0257H6.66667V20.8718ZM4 9.17953H6.73333C6.70667 9.38876 6.66667 9.58568 6.66667 9.79491V11.6411H4C3.26667 11.6411 2.66667 11.0872 2.66667 10.4103C2.66667 9.73337 3.26667 9.17953 4 9.17953ZM1.33333 15.3334C1.33333 14.6565 1.93333 14.1026 2.66667 14.1026H6.66667V16.5641H2.66667C1.93333 16.5641 1.33333 16.0103 1.33333 15.3334Z" fill="#1A6464"/>
</svg>
