<svg width="32" height="32" viewBox="0 0 32 32" fill="none" xmlns="http://www.w3.org/2000/svg">
<path d="M16.0001 13.48C17.3734 13.48 18.4934 14.6 18.4934 16C18.4934 17.3334 17.3734 18.4667 16.0001 18.4667C14.6267 18.4667 13.5067 17.3334 13.5067 16C13.5067 14.6 14.6267 13.48 16.0001 13.48ZM9.82675 26.6667C10.6667 27.1733 12.5067 26.4 14.6267 24.4C13.9334 23.6133 13.2534 22.76 12.6134 21.8667C11.539 21.7639 10.4708 21.6036 9.41341 21.3867C8.73341 24.24 8.98675 26.2 9.82675 26.6667ZM10.7734 19.0134L10.3867 18.3334C10.2401 18.72 10.0934 19.1067 10.0001 19.48C10.3601 19.56 10.7601 19.6267 11.1734 19.6933L10.7734 19.0134ZM19.4934 18L20.5734 16L19.4934 14C19.0934 13.2934 18.6667 12.6667 18.2801 12.04C17.5601 12 16.8001 12 16.0001 12C15.2001 12 14.4401 12 13.7201 12.04C13.3334 12.6667 12.9067 13.2934 12.5067 14L11.4267 16L12.5067 18C12.9067 18.7067 13.3334 19.3334 13.7201 19.96C14.4401 20 15.2001 20 16.0001 20C16.8001 20 17.5601 20 18.2801 19.96C18.6667 19.3334 19.0934 18.7067 19.4934 18ZM16.0001 9.04002C15.7467 9.33335 15.4801 9.64002 15.2134 10H16.7867C16.5201 9.64002 16.2534 9.33335 16.0001 9.04002ZM16.0001 22.96C16.2534 22.6667 16.5201 22.36 16.7867 22H15.2134C15.4801 22.36 15.7467 22.6667 16.0001 22.96ZM22.1601 5.33335C21.3334 4.82668 19.4934 5.60002 17.3734 7.60002C18.0667 8.38668 18.7467 9.24002 19.3867 10.1334C20.4801 10.24 21.5601 10.4 22.5868 10.6134C23.2668 7.76002 23.0134 5.80002 22.1601 5.33335ZM21.2267 12.9867L21.6134 13.6667C21.7601 13.28 21.9067 12.8934 22.0001 12.52C21.6401 12.44 21.2401 12.3734 20.8267 12.3067L21.2267 12.9867ZM23.1601 3.58668C25.1201 4.70668 25.3334 7.65335 24.5067 11.0934C27.8934 12.0934 30.3334 13.7467 30.3334 16C30.3334 18.2534 27.8934 19.9067 24.5067 20.9067C25.3334 24.3467 25.1201 27.2933 23.1601 28.4133C21.2134 29.5333 18.5601 28.2534 16.0001 25.8134C13.4401 28.2534 10.7867 29.5333 8.82675 28.4133C6.88008 27.2933 6.66675 24.3467 7.49341 20.9067C4.10675 19.9067 1.66675 18.2534 1.66675 16C1.66675 13.7467 4.10675 12.0934 7.49341 11.0934C6.66675 7.65335 6.88008 4.70668 8.82675 3.58668C10.7867 2.46668 13.4401 3.74668 16.0001 6.18668C18.5601 3.74668 21.2134 2.46668 23.1601 3.58668ZM22.7734 16C23.2267 17 23.6267 18 23.9601 19.0134C26.7601 18.1734 28.3334 16.9734 28.3334 16C28.3334 15.0267 26.7601 13.8267 23.9601 12.9867C23.6267 14 23.2267 15 22.7734 16ZM9.22675 16C8.77342 15 8.37341 14 8.04008 12.9867C5.24008 13.8267 3.66675 15.0267 3.66675 16C3.66675 16.9734 5.24008 18.1734 8.04008 19.0134C8.37341 18 8.77342 17 9.22675 16ZM21.2267 19.0134L20.8267 19.6933C21.2401 19.6267 21.6401 19.56 22.0001 19.48C21.9067 19.1067 21.7601 18.72 21.6134 18.3334L21.2267 19.0134ZM17.3734 24.4C19.4934 26.4 21.3334 27.1733 22.1601 26.6667C23.0134 26.2 23.2668 24.24 22.5868 21.3867C21.5601 21.6 20.4801 21.76 19.3867 21.8667C18.7467 22.76 18.0667 23.6133 17.3734 24.4ZM10.7734 12.9867L11.1734 12.3067C10.7601 12.3734 10.3601 12.44 10.0001 12.52C10.0934 12.8934 10.2401 13.28 10.3867 13.6667L10.7734 12.9867ZM14.6267 7.60002C12.5067 5.60002 10.6667 4.82668 9.82675 5.33335C8.98675 5.80002 8.73341 7.76002 9.41341 10.6134C10.4708 10.3964 11.539 10.2362 12.6134 10.1334C13.2534 9.24002 13.9334 8.38668 14.6267 7.60002Z" fill="#61D3F2"/>
</svg>
