<svg width="32" height="32" viewBox="0 0 32 32" fill="none" xmlns="http://www.w3.org/2000/svg">
<path d="M20.0973 2.66669H11.916C4.44399 2.66669 2.66666 4.44402 2.66666 11.9027V20.084C2.66666 27.5547 4.43066 29.3334 11.9027 29.3334H20.084C27.5547 29.3334 29.3333 27.5694 29.3333 20.0974V11.916C29.3333 4.44402 27.5693 2.66669 20.0973 2.66669ZM24.1947 21.6934H22.2493C21.5133 21.6934 21.292 21.0974 19.972 19.7774C18.82 18.6667 18.3333 18.528 18.0413 18.528C17.6387 18.528 17.528 18.6387 17.528 19.1947V20.944C17.528 21.4174 17.3747 21.6947 16.1387 21.6947C14.9391 21.6141 13.7759 21.2496 12.7448 20.6314C11.7137 20.0132 10.8442 19.1588 10.208 18.1387C8.69755 16.2587 7.64658 14.0522 7.13866 11.6947C7.13866 11.4027 7.24932 11.1387 7.80532 11.1387H9.74932C10.2493 11.1387 10.4293 11.3614 10.6253 11.8747C11.5693 14.6534 13.18 17.0694 13.8333 17.0694C14.084 17.0694 14.1933 16.9587 14.1933 16.3334V13.472C14.1107 12.1667 13.4173 12.056 13.4173 11.584C13.4262 11.4595 13.4833 11.3434 13.5764 11.2603C13.6695 11.1771 13.7913 11.1335 13.916 11.1387H16.972C17.3893 11.1387 17.528 11.3467 17.528 11.8467V15.708C17.528 16.1254 17.708 16.264 17.8333 16.264C18.084 16.264 18.2773 16.1254 18.736 15.6667C19.7211 14.4653 20.526 13.1268 21.1253 11.6934C21.1866 11.5212 21.3025 11.3738 21.4554 11.2736C21.6082 11.1735 21.7897 11.1261 21.972 11.1387H23.9173C24.5 11.1387 24.624 11.4307 24.5 11.8467C23.7926 13.4313 22.9174 14.9354 21.8893 16.3334C21.68 16.6534 21.596 16.82 21.8893 17.1947C22.0827 17.4867 22.764 18.056 23.2227 18.5974C23.8892 19.2622 24.4427 20.0314 24.8613 20.8747C25.028 21.416 24.7493 21.6947 24.1947 21.6947V21.6934Z" fill="#641A46"/>
</svg>
